HIERARCHY
ROOT Hips
{
    OFFSET 0.000000 0.000000 0.000000
    CHANNELS 6 Xposition Yposition Zposition Zrotation Xrotation Yrotation
    JOINT Spine
    {
        OFFSET -0.000000 7.236184 0.000000
        CHANNELS 3 Zrotation Xrotation Yrotation
        JOINT Spine1
        {
            OFFSET -0.000000 20.420147 0.000000
            CHANNELS 3 Zrotation Xrotation Yrotation
            JOINT Neck
            {
                OFFSET -0.000000 20.336288 1.848754
                CHANNELS 3 Zrotation Xrotation Yrotation
                JOINT Head
                {
                    OFFSET -0.000000 12.354461 -1.764923
                    CHANNELS 3 Zrotation Xrotation Yrotation
                    End Site
                    {
                        OFFSET -0.000000 22.061537 0.000000
                    }
                }
            }
            JOINT LeftShoulder
            {
                OFFSET 3.573296 18.396038 -0.314103
                CHANNELS 3 Zrotation Xrotation Yrotation
                JOINT LeftArm
                {
                    OFFSET 10.880760 0.000000 0.000000
                    CHANNELS 3 Zrotation Xrotation Yrotation
                    JOINT LeftForeArm
                    {
                        OFFSET 27.185530 0.000000 0.000000
                        CHANNELS 3 Zrotation Xrotation Yrotation
                        JOINT LeftHand
                        {
                            OFFSET 27.825975 0.000000 0.000000
                            CHANNELS 3 Zrotation Xrotation Yrotation
                            End Site
                            {
                                OFFSET 13.236923 0.000000 0.000000
                            }
                        }
                    }
                }
            }
            JOINT RightShoulder
            {
                OFFSET -3.474926 18.396038 -0.314103
                CHANNELS 3 Zrotation Xrotation Yrotation
                JOINT RightArm
                {
                    OFFSET -10.880760 0.000000 0.000000
                    CHANNELS 3 Zrotation Xrotation Yrotation
                    JOINT RightForeArm
                    {
                        OFFSET -27.185530 0.000000 0.000000
                        CHANNELS 3 Zrotation Xrotation Yrotation
                        JOINT RightHand
                        {
                            OFFSET -27.825975 0.000000 0.000000
                            CHANNELS 3 Zrotation Xrotation Yrotation
                            End Site
                            {
                                OFFSET -13.236923 0.000000 0.000000
                            }
                        }
                    }
                }
            }
        }
    }
    JOINT LeftUpLeg
    {
        OFFSET 8.824615 0.000000 0.000000
        CHANNELS 3 Zrotation Xrotation Yrotation
        JOINT LeftLeg
        {
            OFFSET -0.000000 -35.111282 0.000000
            CHANNELS 3 Zrotation Xrotation Yrotation
            JOINT LeftFoot
            {
                OFFSET -0.000000 -42.324711 0.000000
                CHANNELS 3 Zrotation Xrotation Yrotation
                JOINT LeftToeBase
                {
                    OFFSET -0.000000 -5.735999 13.236923
                    CHANNELS 3 Zrotation Xrotation Yrotation
                    End Site
                    {
                        OFFSET -0.000000 0.000000 3.529846
                    }
                }
            }
        }
    }
    JOINT RightUpLeg
    {
        OFFSET -8.824615 0.000000 0.000000
        CHANNELS 3 Zrotation Xrotation Yrotation
        JOINT RightLeg
        {
            OFFSET -0.000000 -35.111282 0.000000
            CHANNELS 3 Zrotation Xrotation Yrotation
            JOINT RightFoot
            {
                OFFSET -0.000000 -42.324711 0.000000
                CHANNELS 3 Zrotation Xrotation Yrotation
                JOINT RightToeBase
                {
                    OFFSET -0.000000 -5.735999 13.236923
                    CHANNELS 3 Zrotation Xrotation Yrotation
                    End Site
                    {
                        OFFSET -0.000000 0.000000 3.529846
                    }
                }
            }
        }
    }
}
MOTION
Frames:    5
Frame Time:    0.008333
5.565108    82.351646    114.227821    -0.623671    -14.978973    -176.197556    -2.834926    -14.564372    -0.228173    0.865541    9.520880    0.062076    3.929335    7.519553    -2.663852    9.443233    -10.952295    -0.862630    0.317237    16.218264    -2.957170    -39.431389    44.572292    -45.992321    1.584278    -3.548270    -14.487462    18.921232    -3.210345    0.822938    4.136460    18.260742    -1.915708    40.889130    46.515781    40.248608    -5.107965    -9.198894    17.144325    -17.372026    -8.006419    -2.850557    10.313085    -21.880117    0.169517    0.233846    16.351435    3.858548    -12.204542    -6.961623    -12.459494    -0.049500    0.925190    0.054779    -14.277840    -13.497714    -4.849298    2.515993    7.879904    -1.317910    8.743059    -5.509724    -12.100370    -1.209662    1.711027    1.305315    
5.595763    82.345757    114.222290    -0.607669    -14.996476    -176.148163    -2.843472    -14.582181    -0.215516    0.825790    9.542725    0.079382    3.936054    7.463865    -2.724515    9.484713    -10.936828    -0.919782    0.304970    16.240734    -3.005448    -39.423878    44.577999    -46.024975    1.540886    -3.537226    -14.384506    18.901405    -3.206273    0.823445    4.148602    18.239141    -1.897744    40.630356    46.483498    40.543369    -5.101020    -9.183945    17.105955    -17.322140    -7.988846    -2.894369    10.330243    -21.923685    0.118948    0.238181    16.377785    3.882219    -12.230947    -6.963135    -12.474962    -0.050364    0.916863    0.055736    -14.260007    -13.573580    -4.845740    2.527627    8.019129    -1.325215    8.717034    -5.568615    -12.142473    -1.202671    1.690841    1.297807    
5.625652    82.339890    114.217117    -0.592854    -15.014788    -176.099319    -2.852438    -14.599988    -0.203254    0.785837    9.563565    0.096625    3.942174    7.408918    -2.784616    9.524657    -10.921420    -0.976651    0.293217    16.262644    -3.054336    -39.414219    44.585632    -46.059635    1.497864    -3.526964    -14.282557    18.880938    -3.202789    0.824327    4.160715    18.217169    -1.879258    40.371078    46.447861    40.837578    -5.093246    -9.170191    17.065866    -17.269957    -7.973349    -2.934289    10.345542    -21.967392    0.067891    0.242620    16.402725    3.907597    -12.257371    -6.963883    -12.491346    -0.051285    0.908761    0.056756    -14.244171    -13.648591    -4.841178    2.539965    8.154593    -1.337789    8.691606    -5.625252    -12.180848    -1.195812    1.670792    1.290440    
5.653754    82.334152    114.212540    -0.580172    -15.033902    -176.052017    -2.862096    -14.617586    -0.191614    0.746764    9.582826    0.112948    3.946517    7.355220    -2.842839    9.561739    -10.905527    -1.032083    0.282155    16.283377    -3.103485    -39.400341    44.596348    -46.098316    1.455925    -3.517954    -14.183788    18.859760    -3.200192    0.825886    4.172178    18.194761    -1.859969    40.114971    46.407608    41.127033    -5.084020    -9.158582    17.023510    -17.215046    -7.961482    -2.967075    10.357602    -22.010170    0.016769    0.247036    16.424669    3.935056    -12.283557    -6.963425    -12.508828    -0.052344    0.901158    0.057929    -14.231940    -13.722144    -4.847304    2.551371    8.284757    -1.349422    8.668011    -5.677994    -12.209453    -1.189494    1.652195    1.283655    
5.680055    82.328606    114.208481    -0.569304    -15.053435    -176.005676    -2.872291    -14.634456    -0.180970    0.708597    9.600439    0.128395    3.948593    7.302861    -2.899344    9.595680    -10.889538    -1.086247    0.271938    16.302549    -3.153260    -39.380287    44.611771    -46.143322    1.415114    -3.510361    -14.088325    18.837130    -3.198575    0.828655    4.183000    18.171431    -1.839535    39.859241    46.361748    41.414684    -5.073439    -9.149767    16.977560    -17.156080    -7.954140    -2.991647    10.366464    -22.051348    -0.034425    0.251798    16.442835    3.964453    -12.309900    -6.961452    -12.527946    -0.053603    0.894385    0.059323    -14.222858    -13.792150    -4.859096    2.562369    8.406486    -1.366880    8.646390    -5.725451    -12.227077    -1.183755    1.634754    1.277490    
